# File produced by Open Asset Import Library (http://www.assimp.sf.net)
# (assimp v5.0.2255862537)

mtllib Catan_piece.mtl

# 12 vertex positions
v  -19.66 34.5 1.4
v  -19.66 34.5 0
v  -19.66 -10.5 0
v  -19.66 -10.5 1.4
v  19.565001 -33 1.4
v  19.565001 -33 0
v  58.790001 -10.5 0
v  58.790001 -10.5 1.4
v  58.790001 34.5 0
v  19.565001 57 0
v  19.565001 57 1.4
v  58.790001 34.5 1.4

# 0 UV coordinates

# 8 vertex normals
vn -1 0 0
vn 0.49756718 -0.86742544 0
vn 0 0 -1
vn 0.49756718 0.86742544 0
vn 1 0 0
vn 0 0 1
vn -0.49756718 -0.86742544 0
vn -0.49756718 0.86742544 0

# Mesh '' with 20 faces
usemtl DefaultMaterial
f  1//1 2//1 3//1
f  1//1 3//1 4//1
f  5//2 6//2 7//2
f  5//2 7//2 8//2
f  9//3 7//3 10//3
f  7//3 6//3 10//3
f  2//3 10//3 6//3
f  2//3 6//3 3//3
f  9//4 10//4 11//4
f  9//4 11//4 12//4
f  9//5 12//5 8//5
f  9//5 8//5 7//5
f  1//6 4//6 11//6
f  4//6 5//6 11//6
f  12//6 11//6 5//6
f  12//6 5//6 8//6
f  5//7 4//7 3//7
f  5//7 3//7 6//7
f  10//8 2//8 1//8
f  10//8 1//8 11//8

